ffmpeg started on 2025-05-26 at 18:10:12
Report written to "D:\Convert\FFMetrics\reports\psnr_report-6.txt"
Log level: 32
Command line:
ffmpeg -hide_banner -nostdin -i "G:\\\xc0\xed\xe8\xec\xe5\\\xce\xed\xe3\xee\xe8\xed\xe3\xe8\\!_34_\xc2\xe5\xf1\xed\xe0_2024\\DreamCast\\\xc4\xe2\xe5 \xf1\xf2\xee\xf0\xee\xed\xfb \xf1\xfd\xe9\xfe \xf0\xe0\xe4\xe8\xee\\[DC] Seiyuu Radio no Uraomote - 05_Telegram_HEVC.mkv" -i "G:\\\xc0\xed\xe8\xec\xe5\\\xce\xed\xe3\xee\xe8\xed\xe3\xe8\\!_34_\xc2\xe5\xf1\xed\xe0_2024\\DreamCast\\\xc4\xe2\xe5 \xf1\xf2\xee\xf0\xee\xed\xfb \xf1\xfd\xe9\xfe \xf0\xe0\xe4\xe8\xee\\[DC] Seiyuu Radio no Uraomote - 05_Telegram.mp4" -lavfi "[0:v]settb=AVTB,setpts=PTS-STARTPTS,format=pix_fmts=yuv420p10,fps=24000/1001,scale=1920:1080:flags=bicubic[main];[1:v]settb=AVTB,setpts=PTS-STARTPTS,format=pix_fmts=yuv420p,fps=24000/1001,scale=1920:1080:flags=bicubic[ref];[main][ref]psnr=eof_action=endall:stats_file='D\\:/Convert/FFMetrics/logs/psnr_logfile-6.txt'" -f null -
Input #0, matroska,webm, from 'G:\Аниме\Онгоинги\!_34_Весна_2024\DreamCast\Две стороны сэйю радио\[DC] Seiyuu Radio no Uraomote - 05_Telegram_HEVC.mkv':
  Metadata:
    COMPATIBLE_BRANDS: isomiso2avc1mp41
    MAJOR_BRAND     : isom
    MINOR_VERSION   : 512
    ENCODER         : Lavf61.7.100
  Duration: 00:23:46.77, start: -0.021000, bitrate: 843 kb/s
  Stream #0:0: Video: hevc (Main 10), yuv420p10le(tv, bt709, progressive), 1920x1080 [SAR 1:1 DAR 16:9], 23.98 fps, 23.98 tbr, 1k tbn (default)
      Metadata:
        HANDLER_NAME    : VideoHandler
        VENDOR_ID       : [0][0][0][0]
        ENCODER         : Lavc61.19.100 libx265
        BPS             : 646092
        DURATION        : 00:23:46.633708333
        NUMBER_OF_FRAMES: 34205
        NUMBER_OF_BYTES : 115217089
        _STATISTICS_WRITING_APP: mkvpropedit v66.0.0 ('Josie') 64-bit
        _STATISTICS_WRITING_DATE_UTC: 2025-05-26 08:30:49
        _STATISTICS_TAGS: BPS DURATION NUMBER_OF_FRAMES NUMBER_OF_BYTES
  Stream #0:1: Audio: aac (LC), 48000 Hz, stereo, fltp (default)
      Metadata:
        HANDLER_NAME    : SoundHandler
        VENDOR_ID       : [0][0][0][0]
        ENCODER         : Lavc61.19.100 aac
        BPS             : 193088
        DURATION        : 00:23:46.773000000
        NUMBER_OF_FRAMES: 66881
        NUMBER_OF_BYTES : 34436758
        _STATISTICS_WRITING_APP: mkvpropedit v66.0.0 ('Josie') 64-bit
        _STATISTICS_WRITING_DATE_UTC: 2025-05-26 08:30:49
        _STATISTICS_TAGS: BPS DURATION NUMBER_OF_FRAMES NUMBER_OF_BYTES
Input #1, mov,mp4,m4a,3gp,3g2,mj2, from 'G:\Аниме\Онгоинги\!_34_Весна_2024\DreamCast\Две стороны сэйю радио\[DC] Seiyuu Radio no Uraomote - 05_Telegram.mp4':
  Metadata:
    major_brand     : isom
    minor_version   : 512
    compatible_brands: isomiso2avc1mp41
    encoder         : Lavf60.16.100
  Duration: 00:23:46.75, start: 0.000000, bitrate: 3634 kb/s
  Stream #1:0[0x1](und): Video: h264 (High) (avc1 / 0x31637661), yuv420p(tv, bt709, progressive), 1920x1080 [SAR 1:1 DAR 16:9], 3486 kb/s, 23.98 fps, 23.98 tbr, 24k tbn (default)
      Metadata:
        handler_name    : VideoHandler
        vendor_id       : [0][0][0][0]
        encoder         : Lavc60.31.102 h264_qsv
  Stream #1:1[0x2](und): Audio: aac (HE-AACv2) (mp4a / 0x6134706D), 48000 Hz, stereo, fltp, 144 kb/s (default)
      Metadata:
        handler_name    : SoundHandler
        vendor_id       : [0][0][0][0]
Stream mapping:
  Stream #0:0 (hevc) -> settb:default
  Stream #1:0 (h264) -> settb:default
  psnr:default -> Stream #0:0 (wrapped_avframe)
  Stream #0:1 -> #0:1 (aac (native) -> pcm_s16le (native))
Output #0, null, to 'pipe:':
  Metadata:
    COMPATIBLE_BRANDS: isomiso2avc1mp41
    MAJOR_BRAND     : isom
    MINOR_VERSION   : 512
    encoder         : Lavf61.7.100
  Stream #0:0: Video: wrapped_avframe, yuv420p10le(tv, bt709, progressive), 1920x1080 [SAR 1:1 DAR 16:9], q=2-31, 200 kb/s, 23.98 fps, 23.98 tbn
      Metadata:
        encoder         : Lavc61.19.100 wrapped_avframe
  Stream #0:1: Audio: pcm_s16le, 48000 Hz, stereo, s16, 1536 kb/s (default)
      Metadata:
        HANDLER_NAME    : SoundHandler
        VENDOR_ID       : [0][0][0][0]
        _STATISTICS_TAGS: BPS DURATION NUMBER_OF_FRAMES NUMBER_OF_BYTES
        BPS             : 193088
        DURATION        : 00:23:46.773000000
        NUMBER_OF_FRAMES: 66881
        NUMBER_OF_BYTES : 34436758
        _STATISTICS_WRITING_APP: mkvpropedit v66.0.0 ('Josie') 64-bit
        _STATISTICS_WRITING_DATE_UTC: 2025-05-26 08:30:49
        encoder         : Lavc61.19.100 pcm_s16le
frame=  178 fps=0.0 q=-0.0 size=N/A time=00:00:07.42 bitrate=N/A speed=14.5x    frame=  445 fps=430 q=-0.0 size=N/A time=00:00:18.56 bitrate=N/A speed=17.9x    frame=  716 fps=465 q=-0.0 size=N/A time=00:00:29.86 bitrate=N/A speed=19.4x    frame=  963 fps=466 q=-0.0 size=N/A time=00:00:40.16 bitrate=N/A speed=19.5x    frame= 1193 fps=464 q=-0.0 size=N/A time=00:00:49.75 bitrate=N/A speed=19.3x    frame= 1443 fps=466 q=-0.0 size=N/A time=00:01:00.18 bitrate=N/A speed=19.5x    frame= 1647 fps=457 q=-0.0 size=N/A time=00:01:08.69 bitrate=N/A speed=19.1x    frame= 1760 fps=427 q=-0.0 size=N/A time=00:01:13.40 bitrate=N/A speed=17.8x    frame= 1958 fps=421 q=-0.0 size=N/A time=00:01:21.66 bitrate=N/A speed=17.6x    frame= 2159 fps=419 q=-0.0 size=N/A time=00:01:30.04 bitrate=N/A speed=17.5x    frame= 2373 fps=418 q=-0.0 size=N/A time=00:01:38.97 bitrate=N/A speed=17.4x    frame= 2606 fps=422 q=-0.0 size=N/A time=00:01:48.69 bitrate=N/A speed=17.6x    frame= 2804 fps=418 q=-0.0 size=N/A time=00:01:56.95 bitrate=N/A speed=17.4x    frame= 3037 fps=420 q=-0.0 size=N/A time=00:02:06.66 bitrate=N/A speed=17.5x    frame= 3317 fps=429 q=-0.0 size=N/A time=00:02:18.34 bitrate=N/A speed=17.9x    frame= 3589 fps=436 q=-0.0 size=N/A time=00:02:29.69 bitrate=N/A speed=18.2x    frame= 3880 fps=443 q=-0.0 size=N/A time=00:02:41.82 bitrate=N/A speed=18.5x    frame= 4139 fps=446 q=-0.0 size=N/A time=00:02:52.63 bitrate=N/A speed=18.6x    frame= 4390 fps=448 q=-0.0 size=N/A time=00:03:03.09 bitrate=N/A speed=18.7x    frame= 4625 fps=449 q=-0.0 size=N/A time=00:03:12.90 bitrate=N/A speed=18.7x    frame= 4891 fps=452 q=-0.0 size=N/A time=00:03:23.99 bitrate=N/A speed=18.8x    frame= 5168 fps=456 q=-0.0 size=N/A time=00:03:35.54 bitrate=N/A speed=  19x    frame= 5443 fps=459 q=-0.0 size=N/A time=00:03:47.01 bitrate=N/A speed=19.2x    frame= 5693 fps=460 q=-0.0 size=N/A time=00:03:57.44 bitrate=N/A speed=19.2x    frame= 5956 fps=462 q=-0.0 size=N/A time=00:04:08.41 bitrate=N/A speed=19.3x    frame= 6240 fps=465 q=-0.0 size=N/A time=00:04:20.26 bitrate=N/A speed=19.4x    frame= 6522 fps=469 q=-0.0 size=N/A time=00:04:32.02 bitrate=N/A speed=19.5x    frame= 6819 fps=472 q=-0.0 size=N/A time=00:04:44.40 bitrate=N/A speed=19.7x    frame= 7097 fps=474 q=-0.0 size=N/A time=00:04:56.00 bitrate=N/A speed=19.8x    frame= 7373 fps=477 q=-0.0 size=N/A time=00:05:07.51 bitrate=N/A speed=19.9x    frame= 7637 fps=478 q=-0.0 size=N/A time=00:05:18.52 bitrate=N/A speed=19.9x    frame= 7878 fps=478 q=-0.0 size=N/A time=00:05:28.57 bitrate=N/A speed=19.9x    frame= 8141 fps=478 q=-0.0 size=N/A time=00:05:39.54 bitrate=N/A speed=  20x    frame= 8390 fps=479 q=-0.0 size=N/A time=00:05:49.93 bitrate=N/A speed=  20x    frame= 8674 fps=481 q=-0.0 size=N/A time=00:06:01.77 bitrate=N/A speed=  20x    frame= 8940 fps=481 q=-0.0 size=N/A time=00:06:12.87 bitrate=N/A speed=20.1x    frame= 9208 fps=483 q=-0.0 size=N/A time=00:06:24.05 bitrate=N/A speed=20.1x    frame= 9492 fps=484 q=-0.0 size=N/A time=00:06:35.89 bitrate=N/A speed=20.2x    frame= 9778 fps=486 q=-0.0 size=N/A time=00:06:47.82 bitrate=N/A speed=20.3x    frame=10060 fps=488 q=-0.0 size=N/A time=00:06:59.58 bitrate=N/A speed=20.4x    frame=10340 fps=489 q=-0.0 size=N/A time=00:07:11.26 bitrate=N/A speed=20.4x    frame=10628 fps=491 q=-0.0 size=N/A time=00:07:23.27 bitrate=N/A speed=20.5x    frame=10850 fps=489 q=-0.0 size=N/A time=00:07:32.53 bitrate=N/A speed=20.4x    frame=11113 fps=490 q=-0.0 size=N/A time=00:07:43.50 bitrate=N/A speed=20.4x    frame=11359 fps=490 q=-0.0 size=N/A time=00:07:53.76 bitrate=N/A speed=20.4x    frame=11604 fps=489 q=-0.0 size=N/A time=00:08:03.98 bitrate=N/A speed=20.4x    frame=11879 fps=490 q=-0.0 size=N/A time=00:08:15.45 bitrate=N/A speed=20.5x    frame=12143 fps=491 q=-0.0 size=N/A time=00:08:26.46 bitrate=N/A speed=20.5x    frame=12389 fps=490 q=-0.0 size=N/A time=00:08:36.72 bitrate=N/A speed=20.5x    frame=12655 fps=491 q=-0.0 size=N/A time=00:08:47.81 bitrate=N/A speed=20.5x    frame=12886 fps=490 q=-0.0 size=N/A time=00:08:57.45 bitrate=N/A speed=20.4x    frame=13160 fps=491 q=-0.0 size=N/A time=00:09:08.88 bitrate=N/A speed=20.5x    frame=13439 fps=492 q=-0.0 size=N/A time=00:09:20.51 bitrate=N/A speed=20.5x    frame=13689 fps=492 q=-0.0 size=N/A time=00:09:30.94 bitrate=N/A speed=20.5x    frame=13945 fps=492 q=-0.0 size=N/A time=00:09:41.62 bitrate=N/A speed=20.5x    frame=14195 fps=492 q=-0.0 size=N/A time=00:09:52.04 bitrate=N/A speed=20.5x    frame=14447 fps=492 q=-0.0 size=N/A time=00:10:02.56 bitrate=N/A speed=20.5x    frame=14691 fps=491 q=-0.0 size=N/A time=00:10:12.73 bitrate=N/A speed=20.5x    frame=14973 fps=492 q=-0.0 size=N/A time=00:10:24.49 bitrate=N/A speed=20.5x    frame=15234 fps=492 q=-0.0 size=N/A time=00:10:35.38 bitrate=N/A speed=20.5x    frame=15493 fps=493 q=-0.0 size=N/A time=00:10:46.18 bitrate=N/A speed=20.5x    frame=15756 fps=493 q=-0.0 size=N/A time=00:10:57.15 bitrate=N/A speed=20.6x    frame=16043 fps=494 q=-0.0 size=N/A time=00:11:09.12 bitrate=N/A speed=20.6x    frame=16298 fps=494 q=-0.0 size=N/A time=00:11:19.76 bitrate=N/A speed=20.6x    frame=16584 fps=495 q=-0.0 size=N/A time=00:11:31.69 bitrate=N/A speed=20.6x    frame=16821 fps=494 q=-0.0 size=N/A time=00:11:41.57 bitrate=N/A speed=20.6x    frame=17092 fps=495 q=-0.0 size=N/A time=00:11:52.87 bitrate=N/A speed=20.6x    frame=17327 fps=494 q=-0.0 size=N/A time=00:12:02.68 bitrate=N/A speed=20.6x    frame=17595 fps=495 q=-0.0 size=N/A time=00:12:13.85 bitrate=N/A speed=20.6x    frame=17840 fps=494 q=-0.0 size=N/A time=00:12:24.07 bitrate=N/A speed=20.6x    frame=18099 fps=494 q=-0.0 size=N/A time=00:12:34.87 bitrate=N/A speed=20.6x    frame=18346 fps=494 q=-0.0 size=N/A time=00:12:45.18 bitrate=N/A speed=20.6x    frame=18587 fps=494 q=-0.0 size=N/A time=00:12:55.23 bitrate=N/A speed=20.6x    frame=18824 fps=493 q=-0.0 size=N/A time=00:13:05.11 bitrate=N/A speed=20.6x    frame=19063 fps=493 q=-0.0 size=N/A time=00:13:15.08 bitrate=N/A speed=20.6x    frame=19308 fps=493 q=-0.0 size=N/A time=00:13:25.30 bitrate=N/A speed=20.6x    frame=19567 fps=493 q=-0.0 size=N/A time=00:13:36.10 bitrate=N/A speed=20.6x    frame=19855 fps=494 q=-0.0 size=N/A time=00:13:48.11 bitrate=N/A speed=20.6x    frame=20117 fps=494 q=-0.0 size=N/A time=00:13:59.04 bitrate=N/A speed=20.6x    frame=20376 fps=494 q=-0.0 size=N/A time=00:14:09.84 bitrate=N/A speed=20.6x    frame=20638 fps=494 q=-0.0 size=N/A time=00:14:20.77 bitrate=N/A speed=20.6x    frame=20888 fps=494 q=-0.0 size=N/A time=00:14:31.20 bitrate=N/A speed=20.6x    frame=21149 fps=494 q=-0.0 size=N/A time=00:14:42.08 bitrate=N/A speed=20.6x    frame=21427 fps=495 q=-0.0 size=N/A time=00:14:53.68 bitrate=N/A speed=20.6x    frame=21702 fps=495 q=-0.0 size=N/A time=00:15:05.15 bitrate=N/A speed=20.7x    frame=21965 fps=495 q=-0.0 size=N/A time=00:15:16.12 bitrate=N/A speed=20.7x    frame=22252 fps=496 q=-0.0 size=N/A time=00:15:28.09 bitrate=N/A speed=20.7x    frame=22536 fps=497 q=-0.0 size=N/A time=00:15:39.93 bitrate=N/A speed=20.7x    frame=22788 fps=497 q=-0.0 size=N/A time=00:15:50.44 bitrate=N/A speed=20.7x    frame=23038 fps=496 q=-0.0 size=N/A time=00:16:00.87 bitrate=N/A speed=20.7x    frame=23281 fps=496 q=-0.0 size=N/A time=00:16:11.01 bitrate=N/A speed=20.7x    frame=23520 fps=496 q=-0.0 size=N/A time=00:16:20.98 bitrate=N/A speed=20.7x    frame=23760 fps=496 q=-0.0 size=N/A time=00:16:30.99 bitrate=N/A speed=20.7x    frame=24026 fps=496 q=-0.0 size=N/A time=00:16:42.08 bitrate=N/A speed=20.7x    frame=24266 fps=495 q=-0.0 size=N/A time=00:16:52.09 bitrate=N/A speed=20.7x    frame=24505 fps=495 q=-0.0 size=N/A time=00:17:02.06 bitrate=N/A speed=20.7x    frame=24737 fps=495 q=-0.0 size=N/A time=00:17:11.73 bitrate=N/A speed=20.6x    frame=25009 fps=495 q=-0.0 size=N/A time=00:17:23.08 bitrate=N/A speed=20.6x    frame=25273 fps=495 q=-0.0 size=N/A time=00:17:34.09 bitrate=N/A speed=20.7x    frame=25547 fps=496 q=-0.0 size=N/A time=00:17:45.56 bitrate=N/A speed=20.7x    frame=25832 fps=496 q=-0.0 size=N/A time=00:17:57.40 bitrate=N/A speed=20.7x    frame=26084 fps=496 q=-0.0 size=N/A time=00:18:07.92 bitrate=N/A speed=20.7x    frame=26376 fps=497 q=-0.0 size=N/A time=00:18:20.09 bitrate=N/A speed=20.7x    frame=26661 fps=497 q=-0.0 size=N/A time=00:18:31.98 bitrate=N/A speed=20.7x    frame=26930 fps=497 q=-0.0 size=N/A time=00:18:43.20 bitrate=N/A speed=20.7x    frame=27195 fps=498 q=-0.0 size=N/A time=00:18:54.25 bitrate=N/A speed=20.8x    frame=27478 fps=498 q=-0.0 size=N/A time=00:19:06.06 bitrate=N/A speed=20.8x    frame=27751 fps=498 q=-0.0 size=N/A time=00:19:17.44 bitrate=N/A speed=20.8x    frame=27995 fps=498 q=-0.0 size=N/A time=00:19:27.62 bitrate=N/A speed=20.8x    frame=28277 fps=499 q=-0.0 size=N/A time=00:19:39.38 bitrate=N/A speed=20.8x    frame=28560 fps=499 q=-0.0 size=N/A time=00:19:51.19 bitrate=N/A speed=20.8x    frame=28835 fps=499 q=-0.0 size=N/A time=00:20:02.65 bitrate=N/A speed=20.8x    frame=29099 fps=499 q=-0.0 size=N/A time=00:20:13.67 bitrate=N/A speed=20.8x    frame=29384 fps=500 q=-0.0 size=N/A time=00:20:25.55 bitrate=N/A speed=20.8x    frame=29661 fps=500 q=-0.0 size=N/A time=00:20:37.11 bitrate=N/A speed=20.9x    frame=29946 fps=501 q=-0.0 size=N/A time=00:20:48.99 bitrate=N/A speed=20.9x    frame=30224 fps=501 q=-0.0 size=N/A time=00:21:00.59 bitrate=N/A speed=20.9x    frame=30484 fps=501 q=-0.0 size=N/A time=00:21:11.43 bitrate=N/A speed=20.9x    frame=30767 fps=501 q=-0.0 size=N/A time=00:21:23.24 bitrate=N/A speed=20.9x    frame=31051 fps=502 q=-0.0 size=N/A time=00:21:35.08 bitrate=N/A speed=20.9x    frame=31324 fps=502 q=-0.0 size=N/A time=00:21:46.47 bitrate=N/A speed=20.9x    frame=31609 fps=503 q=-0.0 size=N/A time=00:21:58.35 bitrate=N/A speed=  21x    frame=31856 fps=502 q=-0.0 size=N/A time=00:22:08.66 bitrate=N/A speed=20.9x    frame=32110 fps=502 q=-0.0 size=N/A time=00:22:19.25 bitrate=N/A speed=20.9x    frame=32342 fps=502 q=-0.0 size=N/A time=00:22:28.93 bitrate=N/A speed=20.9x    frame=32542 fps=501 q=-0.0 size=N/A time=00:22:37.27 bitrate=N/A speed=20.9x    frame=32763 fps=500 q=-0.0 size=N/A time=00:22:46.49 bitrate=N/A speed=20.9x    frame=32994 fps=500 q=-0.0 size=N/A time=00:22:56.12 bitrate=N/A speed=20.9x    frame=33190 fps=499 q=-0.0 size=N/A time=00:23:04.29 bitrate=N/A speed=20.8x    frame=33391 fps=498 q=-0.0 size=N/A time=00:23:12.68 bitrate=N/A speed=20.8x    frame=33630 fps=498 q=-0.0 size=N/A time=00:23:22.65 bitrate=N/A speed=20.8x    frame=33844 fps=497 q=-0.0 size=N/A time=00:23:31.57 bitrate=N/A speed=20.7x    frame=34071 fps=497 q=-0.0 size=N/A time=00:23:41.04 bitrate=N/A speed=20.7x    [Parsed_psnr_10 @ 0000016cff1a9980] PSNR y:49.265068 u:51.260320 v:51.190809 average:49.825603 min:38.800040 max:inf
[out#0/null @ 0000016cf1d23b80] video:14697KiB audio:267524KiB subtitle:0KiB other streams:0KiB global headers:0KiB muxing overhead: unknown
frame=34205 fps=497 q=-0.0 Lsize=N/A time=00:23:46.63 bitrate=N/A speed=20.7x    
